<?xml version="1.0" encoding="UTF-8"?>
<svg version="1.1" xmlns="http://www.w3.org/2000/svg" width="500" height="500">
<path d="M0 0 C165 0 330 0 500 0 C500 165 500 330 500 500 C335 500 170 500 0 500 C0 335 0 170 0 0 Z " fill="#000000" transform="translate(0,0)"/>
<path d="M0 0 C15.51 0 31.02 0 47 0 C56.96933436 24.6145512 66.92316112 49.23522566 76.85794067 73.86373901 C83.39880103 90.07845659 89.94490849 106.2910305 96.5 122.5 C103.52292826 139.86671157 110.53846212 157.23639974 117.54898071 174.60812378 C118.30130331 176.47225643 119.05372706 178.33634825 119.80615234 180.20043945 C122.0908244 185.86077005 124.37441603 191.52152815 126.65478516 197.18359375 C128.09600089 200.76174444 129.54271926 204.33752458 130.99755859 207.91015625 C131.2855986 208.62079224 131.57363861 209.33142822 131.8704071 210.06359863 C132.59921366 211.86162542 133.33106495 213.6584173 134.06323242 215.45507812 C135 218 135 218 135 220 C117.18 220 99.36 220 81 220 C77.2875 209.9453125 77.2875 209.9453125 73.5 199.6875 C72.71689453 197.57432373 71.93378906 195.46114746 71.12695312 193.28393555 C70.51133423 191.61000464 69.89607514 189.93594136 69.28125 188.26171875 C68.95737305 187.39180298 68.63349609 186.52188721 68.29980469 185.62561035 C67.99526367 184.79356079 67.69072266 183.96151123 67.37695312 183.10424805 C66.97724304 182.02169991 66.97724304 182.02169991 66.56945801 180.9172821 C66 179 66 179 66 176 C37.95 176 9.9 176 -19 176 C-19.33 177.65 -19.66 179.3 -20 181 C-20.43591246 182.39242357 -20.90257006 183.77557666 -21.39868164 185.14770508 C-21.68279907 185.93890747 -21.9669165 186.73010986 -22.25964355 187.54528809 C-22.55681274 188.36178833 -22.85398193 189.17828857 -23.16015625 190.01953125 C-23.43436401 190.78116577 -23.70857178 191.54280029 -23.99108887 192.32751465 C-25.01102874 195.15723876 -26.03712663 197.98474023 -27.0625 200.8125 C-29.351875 207.144375 -31.64125 213.47625 -34 220 C-51.82 220 -69.64 220 -88 220 C-87.29430297 216.47151486 -86.67050187 213.87287011 -85.35546875 210.64282227 C-85.01480377 209.79976532 -84.67413879 208.95670837 -84.32315063 208.08810425 C-83.76100357 206.71611374 -83.76100357 206.71611374 -83.1875 205.31640625 C-82.79106293 204.33858185 -82.39462585 203.36075745 -81.98617554 202.353302 C-80.66141033 199.08807779 -79.33060815 195.82534703 -78 192.5625 C-77.05890926 190.24540089 -76.11832756 187.92809497 -75.17822266 185.6105957 C-73.68565778 181.93151644 -72.19289312 178.2525206 -70.69815063 174.57432556 C-67.02167801 165.52655831 -63.36116289 156.47244917 -59.7109375 147.4140625 C-59.45032028 146.76732637 -59.18970306 146.12059025 -58.92118835 145.45425606 C-57.60191318 142.1801696 -56.28289314 138.90598043 -54.96398926 135.63174438 C-52.31347803 129.05204946 -49.66068451 122.4732746 -47.0078125 115.89453125 C-46.74986404 115.25483335 -46.49191559 114.61513546 -46.22615051 113.95605278 C-40.49277064 99.73802902 -34.74876556 85.52430902 -29 71.3125 C-24.72681489 60.74808887 -20.45849596 50.18173294 -16.1953125 39.61328125 C-15.21583359 37.18570428 -14.23634151 34.75813262 -13.25683594 32.33056641 C-11.82442709 28.78052898 -10.39228694 25.23038453 -8.96105957 21.67987061 C-7.64924084 18.42561156 -6.33643734 15.17175139 -5.0234375 11.91796875 C-4.62963898 10.94024002 -4.23584045 9.96251129 -3.83010864 8.95515442 C-3.470289 8.06398422 -3.11046936 7.17281403 -2.73974609 6.25463867 C-2.42621185 5.47706711 -2.11267761 4.69949554 -1.78964233 3.89836121 C-1.24049803 2.57817584 -0.63944489 1.27888979 0 0 Z " fill="#FDFDFD" transform="translate(163,194)"/>
<path d="M0 0 C14.19 0 28.38 0 43 0 C45.95441401 7.09059362 48.88742448 14.15636708 51.64453125 21.3203125 C51.97181213 22.16711578 52.29909302 23.01391907 52.6362915 23.88638306 C53.6967405 26.63193122 54.75472906 29.37841907 55.8125 32.125 C56.55457227 34.04851566 57.29667895 35.97201805 58.03881836 37.89550781 C65.75403216 57.9068533 73.38590023 77.95000241 81 98 C85.50312591 87.50727943 89.58619073 76.85265953 93.70001221 66.203125 C94.95383839 62.95770957 96.20977918 59.7131197 97.46630859 56.46875 C100.72575097 48.05191473 103.98226273 39.633948 107.23583984 31.21484375 C108.89370177 26.92511261 110.55389013 22.63628926 112.21585083 18.34814453 C112.82028506 16.78701576 113.42370486 15.22549383 114.02609253 13.66357422 C114.85096806 11.52479207 115.67899697 9.38725776 116.5078125 7.25 C116.96816895 6.05890625 117.42852539 4.8678125 117.90283203 3.640625 C119 1 119 1 120 0 C121.35094982 -0.09268999 122.70667091 -0.11747326 124.06079102 -0.11352539 C124.92160782 -0.11344986 125.78242462 -0.11337433 126.66932678 -0.11329651 C127.60473801 -0.10813522 128.54014923 -0.10297394 129.50390625 -0.09765625 C130.45692123 -0.0962413 131.40993622 -0.09482635 132.39183044 -0.09336853 C135.44875165 -0.08775152 138.50560077 -0.07519616 141.5625 -0.0625 C143.62955624 -0.05748719 145.69661362 -0.05292391 147.76367188 -0.04882812 C152.84247588 -0.03777656 157.9212257 -0.02050055 163 0 C163.08468033 0.96684723 163.16936066 1.93369446 163.25660706 2.92984009 C164.26685527 14.46294745 165.27849144 25.99593281 166.29077148 37.528862 C166.56135443 40.61194715 166.83182799 43.69504188 167.10229492 46.77813721 C169.07544834 69.26560759 171.05965505 91.7519748 173.08984375 114.234375 C173.25444331 116.05874607 173.4190399 117.8831174 173.58363342 119.70748901 C174.28382962 127.46476338 174.98559331 135.22188767 175.69258213 142.97854614 C175.97962015 146.13215948 176.26492354 149.28592813 176.54982185 152.43973541 C176.68144424 153.89201505 176.81387106 155.34422205 176.94717216 156.79634857 C177.12826498 158.76948376 177.30639576 160.74289013 177.484375 162.71630859 C177.58459961 163.81639252 177.68482422 164.91647644 177.78808594 166.04989624 C177.97802342 168.69405902 178 171.34902413 178 174 C164.8 174 151.6 174 138 174 C137.26318875 171.052755 136.84854165 168.86831254 136.71875 165.91796875 C136.66267578 164.76651367 136.66267578 164.76651367 136.60546875 163.59179688 C136.57066406 162.79837891 136.53585937 162.00496094 136.5 161.1875 C136.25661748 155.72040752 135.7772173 150.42230505 135 145 C134.71806222 141.22821197 134.56568838 137.45001023 134.39453125 133.671875 C134.22524142 130.2393777 133.9866027 126.90621887 133.5 123.5 C132.795673 118.56971103 132.61974096 113.64317071 132.39453125 108.671875 C132.22536368 105.2418567 131.98731714 101.91141815 131.5 98.5078125 C130.78868763 93.51751165 130.6176188 88.5279573 130.39453125 83.49609375 C130.33845703 82.34947266 130.33845703 82.34947266 130.28125 81.1796875 C130.25095703 80.49632324 130.22066406 79.81295898 130.18945312 79.10888672 C129.9722372 76.69095995 129.51104898 74.37161901 129 72 C128.68587158 72.89750977 128.37174316 73.79501953 128.0480957 74.71972656 C127.83480621 75.32911575 127.62151672 75.93850494 127.40176392 76.56636047 C126.90326641 77.99065852 126.40479361 79.41496522 125.90634155 80.83927917 C124.43201929 85.05198528 122.95721888 89.26452319 121.48168945 93.47680664 C117.93746369 103.59662527 114.39962087 113.71863271 110.87135315 123.84402466 C109.19420661 128.65682041 107.51502343 133.46890492 105.83538723 138.28083229 C104.6398968 141.70617396 103.44553374 145.13190085 102.25357056 148.55847168 C100.90520706 152.43459379 99.55236592 156.30913902 98.19921875 160.18359375 C97.78940765 161.36406784 97.37959656 162.54454193 96.95736694 163.76078796 C96.58173615 164.83415909 96.20610535 165.90753021 95.8190918 167.01342773 C95.49047653 167.95645248 95.16186127 168.89947723 94.82328796 169.87107849 C94 172 94 172 93 173 C91.21928754 173.08726223 89.4351686 173.10699041 87.65234375 173.09765625 C86.57275391 173.09443359 85.49316406 173.09121094 84.38085938 173.08789062 C83.24455078 173.07951172 82.10824219 173.07113281 80.9375 173.0625 C79.79732422 173.05798828 78.65714844 173.05347656 77.48242188 173.04882812 C74.65489649 173.03699747 71.8274736 173.0205141 69 173 C68.4738208 171.45119141 68.4738208 171.45119141 67.93701172 169.87109375 C59.63643072 145.45005542 51.21728055 121.07358893 42.66455078 96.73974609 C39.7680246 88.49608961 36.88498884 80.24769945 34 72 C32.09823624 81.61925943 31.31130666 91.24364748 30.62231445 101.00634766 C30.43928433 103.59971763 30.24872083 106.19244241 30.05664062 108.78515625 C29.39258261 117.85914321 28.79620768 126.93276803 28.370224 136.02139282 C28.14991866 140.3994743 27.64808356 144.6666909 27 149 C26.88186755 150.45656098 26.78447189 151.915135 26.71875 153.375 C26.68136719 154.13296875 26.64398438 154.8909375 26.60546875 155.671875 C26.57066406 156.44015625 26.53585937 157.2084375 26.5 158 C26.25546642 163.39785229 25.85190276 168.66140937 25 174 C21.7 174 18.4 174 15 174 C-2.70996094 129.72509766 -2.70996094 129.72509766 -3.86761475 126.80519104 C-4.61203227 124.96108951 -5.37959826 123.12613419 -6.17193604 121.30210876 C-8.36978617 116.16744883 -9.51037814 112.10481499 -9.390625 106.42578125 C-9.36926483 105.36101311 -9.36926483 105.36101311 -9.34747314 104.2747345 C-9.02999151 93.54764972 -7.82466557 82.85844523 -6.75 72.1875 C-6.52225969 69.8650816 -6.29546609 67.54257019 -6.06958008 65.2199707 C-5.72402279 61.66756454 -5.37794517 58.11521997 -5.02888489 54.56315613 C-3.85522143 42.60994868 -2.76517838 30.64968416 -1.6875 18.6875 C-1.130625 12.520625 -0.57375 6.35375 0 0 Z " fill="#FDFDFD" transform="translate(245,120)"/>
<path d="M0 0 C2.29905855 2.83835083 3.74473759 5.47504404 5.03710938 8.88525391 C5.40759399 9.85371246 5.77807861 10.82217102 6.15979004 11.81997681 C6.55049683 12.86165009 6.94120361 13.90332336 7.34375 14.9765625 C7.95929749 16.59720108 7.95929749 16.59720108 8.58728027 18.25057983 C9.45432768 20.53747199 10.31822394 22.82556098 11.17919922 25.11474609 C12.48823168 28.59372368 13.80770753 32.06859587 15.12890625 35.54296875 C15.97197988 37.77059662 16.81444716 39.99845409 17.65625 42.2265625 C18.04695679 43.25609039 18.43766357 44.28561829 18.84020996 45.34634399 C19.21069458 46.33371552 19.5811792 47.32108704 19.96289062 48.33837891 C20.44562439 49.61933945 20.44562439 49.61933945 20.93811035 50.92617798 C22.4281915 55.23947387 23.68870898 59.62902995 25 64 C8.83 64 -7.34 64 -24 64 C-23.23037268 60.15186341 -22.37282866 57.06157833 -20.99047852 53.44702148 C-20.57657364 52.35916855 -20.16266876 51.27131561 -19.73622131 50.15049744 C-19.28830734 48.98579422 -18.84039337 47.821091 -18.37890625 46.62109375 C-17.9189476 45.41687271 -17.45898895 44.21265167 -16.98509216 42.97193909 C-16.01327281 40.42834112 -15.03879781 37.88578265 -14.06225586 35.34399414 C-12.81289833 32.0918373 -11.56885666 28.8376798 -10.32663059 25.58279324 C-9.138005 22.46968477 -7.9459017 19.35791355 -6.75390625 16.24609375 C-6.08507164 14.49600258 -6.08507164 14.49600258 -5.40272522 12.71055603 C-4.98566818 11.62585526 -4.56861115 10.54115448 -4.13891602 9.42358398 C-3.59050804 7.99392555 -3.59050804 7.99392555 -3.03102112 6.53538513 C-2.11820694 4.2906828 -1.11995773 2.14734018 0 0 Z " fill="#050505" transform="translate(186,262)"/>
</svg>
